# xmcd
# 
# Track frame offsets:
#     150
#     7998
#     27501
#     49186
#     74534
#     95271
#     115127
#     134148
#     153126
#     180217
#     199438
#     219827
#     239512
#     256791
#     275276
#     295494
# 
# Disc length: 4194
# 
# Revision: 1
# Processed by: cddbd v1.5.2PL0 Copyright (c) Steve Scherf et al.
# Submitted via: BonkEnc v1.0.6
# 
DISCID=e5106010
DTITLE=Dream comes true - The soul (disk1)
DYEAR=2001
DGENRE=Other
TTITLE0=A theme of WONDERLAND
TTITLE1=ureshii! tanoshii! daisuki!
TTITLE2=anonatunohanabi
TTITLE3=kessennhakinnyoubi
TTITLE4=kusuriyubinokeshhinn
TTITLE5=egaonoyukue
TTITLE6=ahaha
TTITLE7=7gatu7ka hare
TTITLE8=LAT43N
TTITLE9=nantekoishitanndaro
TTITLE10=Ring!Ring!Ring!
TTITLE11=ureshihazukashiasagaeri
TTITLE12=anatanisarada
TTITLE13=haretaraiine
TTITLE14=yorokobinouta
TTITLE15=asagamatakuru
EXTD=YEAR: 2001  ID3G:  12
EXTT0=
EXTT1=
EXTT2=
EXTT3=
EXTT4=
EXTT5=
EXTT6=
EXTT7=
EXTT8=
EXTT9=
EXTT10=
EXTT11=
EXTT12=
EXTT13=
EXTT14=
EXTT15=
PLAYORDER=
